<svg width="32" height="32" viewBox="0 0 32 32" fill="none" xmlns="http://www.w3.org/2000/svg">
<path d="M10.2861 18.2861C12.1787 18.2864 13.7136 19.8213 13.7139 21.7139V28.5713C13.7139 30.464 12.1788 31.9998 10.2861 32H3.42871C1.53585 32 0 30.4641 0 28.5713V21.7139C0.000226942 19.8212 1.53599 18.2861 3.42871 18.2861H10.2861ZM24 18.2861C24.5894 18.2861 25.0781 18.7379 25.1367 19.3125L25.1484 19.5449C25.2072 20.1194 25.6968 20.5713 26.2861 20.5713H28.5713C29.1998 20.5713 29.7138 20.0572 29.7139 19.4287C29.7139 18.8001 30.2289 18.2861 30.8574 18.2861C31.4859 18.2863 32 18.8002 32 19.4287V26.2861C31.9998 26.9144 31.4857 27.4286 30.8574 27.4287H26.2861C25.6577 27.4287 25.1428 26.9145 25.1426 26.2861C25.1426 25.6576 24.6286 25.1426 24 25.1426C23.3714 25.1426 22.8574 25.6576 22.8574 26.2861V30.8574C22.8573 31.4859 22.3423 32 21.7139 32H19.4287C18.8002 32 18.2863 31.4859 18.2861 30.8574V19.4287C18.2861 18.8001 18.8001 18.2861 19.4287 18.2861H24ZM26.2861 29.7139C26.589 29.714 26.8795 29.8347 27.0938 30.0488C27.3081 30.2632 27.4287 30.5543 27.4287 30.8574C27.4286 31.1604 27.308 31.4508 27.0938 31.665C26.8795 31.8793 26.5891 31.9999 26.2861 32C25.983 32 25.6919 31.8794 25.4775 31.665C25.2634 31.4508 25.1427 31.1604 25.1426 30.8574C25.1426 30.5543 25.2632 30.2632 25.4775 30.0488C25.6919 29.8345 25.9831 29.7139 26.2861 29.7139ZM30.8574 29.7139C31.1603 29.7139 31.4508 29.8347 31.665 30.0488C31.8794 30.2632 32 30.5543 32 30.8574C31.9999 31.1604 31.8793 31.4508 31.665 31.665C31.4508 31.8793 31.1604 31.9999 30.8574 32C30.5543 32 30.2632 31.8794 30.0488 31.665C29.8347 31.4508 29.7139 31.1603 29.7139 30.8574C29.7139 30.5543 29.8345 30.2632 30.0488 30.0488C30.2632 29.8345 30.5543 29.7139 30.8574 29.7139ZM4.57129 27.4287H9.14258V22.8574H4.57129V27.4287ZM10.2861 0C12.1788 0.000225911 13.7139 1.53599 13.7139 3.42871V10.2861C13.7136 12.1787 12.1787 13.7136 10.2861 13.7139H3.42871C1.53599 13.7139 0.000225911 12.1788 0 10.2861V3.42871C0 1.53585 1.53585 0 3.42871 0H10.2861ZM28.5713 0C30.4641 0 32 1.53585 32 3.42871V10.2861C31.9998 12.1788 30.464 13.7139 28.5713 13.7139H21.7139C19.8213 13.7136 18.2864 12.1787 18.2861 10.2861V3.42871C18.2861 1.53599 19.8212 0.000226943 21.7139 0H28.5713ZM4.57129 9.14258H9.14258V4.57129H4.57129V9.14258ZM22.8574 9.14258H27.4287V4.57129H22.8574V9.14258Z" fill="black"/>
</svg>
